<svg width="48" height="48" viewBox="0 0 48 48" fill="none" xmlns="http://www.w3.org/2000/svg">
<path fill-rule="evenodd" clip-rule="evenodd" d="M22.5 7.5V3H25.5V7.5H22.5ZM34.2929 32.7358C35.3595 34.0313 36 35.6907 36 37.4998C36 41.642 32.6422 44.9998 28.5 44.9998L28.445 44.9996H17.3081V44.9995L17.25 44.9997C11.0368 44.9997 6 39.9629 6 33.7496C6 30.0603 7.77596 26.7857 10.5196 24.7341C10.5066 24.4911 10.5 24.2463 10.5 24C10.5 16.5442 16.5442 10.5 24 10.5C31.4558 10.5 37.5 16.5442 37.5 24C37.5 27.3316 36.2932 30.3813 34.2929 32.7358ZM31.9623 30.8451C30.9266 30.3051 29.7489 29.9998 28.5 29.9998C27.2318 29.9998 26.0371 30.3146 24.9897 30.8703C25.3237 31.7668 25.5063 32.7371 25.5063 33.75C25.5063 33.8836 25.5031 34.0165 25.4968 34.1485C26.2933 33.4343 27.3459 32.9998 28.5 32.9998C30.9853 32.9998 33 35.0145 33 37.4998C33 39.9851 30.9853 41.9998 28.5 41.9998V41.9996H28.4574L28.3998 41.9987H17.375C17.3334 41.9994 17.2917 41.9997 17.25 41.9997C12.6937 41.9997 9 38.306 9 33.7496C9 29.1933 12.6937 25.4996 17.25 25.4996C20.7946 25.4996 23.8171 27.735 24.9846 30.8729C25.8578 30.4088 26.8336 30.1121 27.8691 30.0259C26.3322 25.6427 22.1581 22.4996 17.25 22.4996C15.9485 22.4996 14.6986 22.7207 13.5358 23.1272C13.9793 17.7366 18.4949 13.5 24 13.5C29.799 13.5 34.5 18.201 34.5 24C34.5 26.6151 33.544 29.007 31.9623 30.8451ZM45 22.5H40.5V25.5H45V22.5ZM37.5394 14.451L41.4365 12.201L42.9365 14.799L39.0394 17.049L37.5394 14.451ZM33.2011 5.0636L30.9511 8.96071L33.5491 10.4607L35.7991 6.5636L33.2011 5.0636ZM14.451 10.4607L12.201 6.5636L14.799 5.0636L17.049 8.96071L14.451 10.4607ZM5.06351 14.799L8.96062 17.049L10.4606 14.451L6.56351 12.201L5.06351 14.799ZM3 22.5H7.5V25.5H3V22.5ZM37.5395 33.549L41.4366 35.799L42.9366 33.201L39.0395 30.951L37.5395 33.549Z" fill="white"/>
</svg>
