<svg width="48" height="48" viewBox="0 0 48 48" fill="none" xmlns="http://www.w3.org/2000/svg">
<path fill-rule="evenodd" clip-rule="evenodd" d="M41.9999 25.6622C41.9999 29.0714 39.7824 31.9318 36.75 32.8956V35.9999C41.4677 34.9619 44.9999 30.7277 44.9999 25.6622C44.9999 19.8184 40.2989 15.081 34.4999 15.081C34.2024 15.081 33.9078 15.0935 33.6166 15.1179C31.4648 8.93418 25.6212 4.5 18.75 4.5C10.0515 4.5 3 11.6061 3 20.3718C3 26.9967 7.02767 32.6735 12.75 35.0513V31.7313C8.7392 29.5679 6 25.302 6 20.3718C6 13.2411 11.7301 7.5 18.75 7.5C24.1851 7.5 28.8471 10.9415 30.675 15.805L30.6875 15.8001C31.0341 16.7387 31.2772 17.7291 31.4023 18.7566C32.3481 18.3224 33.3975 18.081 34.4999 18.081C38.6203 18.081 41.9999 21.4534 41.9999 25.6622ZM34.5 27H19.5V30H34.5V27ZM31.5 33H16.5V36H31.5V33ZM19.5 39H34.5V42H19.5V39Z" fill="white"/>
</svg>
