<svg width="48" height="48" viewBox="0 0 48 48" fill="none" xmlns="http://www.w3.org/2000/svg">
<path fill-rule="evenodd" clip-rule="evenodd" d="M45 25.5C45 30.9043 41.0625 35.355 36 35.9358V32.9054C39.3307 32.3423 42 29.323 42 25.5C42 21.2544 38.708 18 34.8739 18C33.7908 18 32.7509 18.2598 31.8162 18.7282C31.7686 17.8555 31.6406 17.0051 31.4398 16.1849L31.4353 16.1867C30.0137 10.2751 24.8758 6 18.9124 6C11.8827 6 6 11.9407 6 19.5C6 25.5986 9.82891 30.6437 15 32.3657V35.4976C8.10356 33.6897 3 27.2128 3 19.5C3 10.3873 10.1242 3 18.9124 3C21.9941 3 24.8712 3.90836 27.3082 5.48095C29.1781 3.93141 31.5787 3 34.197 3C40.1634 3 45.0001 7.83673 45.0001 13.8031C45.0001 15.9571 44.3697 17.9639 43.2834 19.649C44.3674 21.3209 45 23.3338 45 25.5ZM41.1818 17.2856C41.7055 16.2373 42.0001 15.0546 42.0001 13.8031C42.0001 9.49359 38.5065 6 34.197 6C32.5369 6 30.9979 6.51838 29.7331 7.4021C31.8477 9.43667 33.428 12.0601 34.2315 15.0208C34.444 15.007 34.6582 15 34.8739 15C37.259 15 39.4515 15.855 41.1818 17.2856ZM21.0032 41.1841C21.0033 41.6881 20.6163 42.0032 20.2531 42.0032C19.8899 42.0032 19.5027 41.6881 19.5025 41.1841C19.5023 40.5415 19.7629 39.6655 20.2116 38.6906C20.3619 39.0068 20.4985 39.3205 20.6153 39.6252C20.9083 40.3894 21.0031 40.9081 21.0032 41.1841ZM20.2503 33C20.2503 33 19.3543 34.0954 18.4385 35.6359C17.481 37.2464 16.5019 39.3435 16.5025 41.1841C16.5032 43.2933 18.1828 45.0032 20.254 45.0032C22.3253 45.0032 24.0038 43.2933 24.0032 41.1841C24.0027 39.5068 22.977 37.3465 21.9983 35.6667C21.1048 34.1332 20.2503 33 20.2503 33ZM29.2531 37.5032C29.6163 37.5032 30.0033 37.1881 30.0032 36.6841C30.0031 36.4081 29.9083 35.8894 29.6153 35.1252C29.4985 34.8205 29.3619 34.5068 29.2116 34.1906C28.7629 35.1655 28.5023 36.0415 28.5025 36.6841C28.5027 37.1881 28.8899 37.5032 29.2531 37.5032ZM27.4385 31.1359C28.3543 29.5954 29.2503 28.5 29.2503 28.5C29.2503 28.5 30.1048 29.6332 30.9983 31.1667C31.977 32.8465 33.0027 35.0068 33.0032 36.6841C33.0038 38.7933 31.3253 40.5032 29.254 40.5032C27.1828 40.5032 25.5032 38.7933 25.5025 36.6841C25.5019 34.8435 26.481 32.7464 27.4385 31.1359Z" fill="white"/>
</svg>
