<svg width="48" height="48" viewBox="0 0 48 48" fill="none" xmlns="http://www.w3.org/2000/svg">
<path fill-rule="evenodd" clip-rule="evenodd" d="M19.1506 44.9982C19.0714 44.9994 18.992 45 18.9124 45C10.1242 45 3 37.6127 3 28.5C3 19.3873 10.1242 12 18.9124 12C26.2034 12 32.3491 17.0846 34.2315 24.0208C34.444 24.007 34.6582 24 34.8739 24C40.4664 24 45 28.701 45 34.5C45 40.299 40.4664 44.9999 34.8739 44.9999C34.7487 44.9999 34.6241 44.9976 34.4999 44.9929V45H19.1506V44.9982ZM34.9544 42C38.7539 41.9548 42 38.7158 42 34.5C42 30.2544 38.708 27 34.8739 27C33.7908 27 32.7509 27.2598 31.8162 27.7282C31.7686 26.8555 31.6406 26.0051 31.4398 25.1849L31.4353 25.1867C30.0137 19.2751 24.8758 15 18.9124 15C11.8827 15 6 20.9407 6 28.5C6 36.0593 11.8827 42 18.9124 42L18.978 41.9998L34.9544 42Z" fill="white"/>
</svg>
