<svg width="48" height="48" viewBox="0 0 48 48" fill="none" xmlns="http://www.w3.org/2000/svg">
<path fill-rule="evenodd" clip-rule="evenodd" d="M37.5 35.6434C41.8194 34.4441 45 30.3572 45 25.5C45 23.3338 44.3674 21.3209 43.2834 19.649C44.3697 17.9639 45.0001 15.9571 45.0001 13.8031C45.0001 7.83673 40.1634 3 34.197 3C31.5787 3 29.1781 3.93141 27.3082 5.48095C24.8712 3.90836 21.9941 3 18.9124 3C10.1242 3 3 10.3873 3 19.5C3 26.0441 6.67408 31.6984 12 34.366V30.9004C8.41529 28.5229 6 24.3437 6 19.5C6 11.9407 11.8827 6 18.9124 6C24.8758 6 30.0137 10.2751 31.4353 16.1867L31.4398 16.1849C31.6406 17.0051 31.7686 17.8555 31.8162 18.7282C32.7509 18.2598 33.7908 18 34.8739 18C38.708 18 42 21.2544 42 25.5C42 28.7278 40.0972 31.3826 37.5 32.47V35.6434ZM29.7331 7.4021C31.8477 9.43667 33.428 12.0601 34.2315 15.0208C34.444 15.007 34.6582 15 34.8739 15C37.259 15 39.4515 15.855 41.1818 17.2856C41.7055 16.2373 42.0001 15.0546 42.0001 13.8031C42.0001 9.49359 38.5065 6 34.197 6C32.5369 6 30.9979 6.51838 29.7331 7.4021ZM15.5414 31.3867C15.2299 32.1162 15.0013 32.8961 15.0016 33.6137C15.002 34.9316 16.0097 36 17.2523 36C18.4949 36 19.502 34.9316 19.5016 33.6137C19.5014 32.9428 19.2491 32.1482 18.9135 31.3878C18.2464 29.8762 17.25 28.5 17.25 28.5C17.25 28.5 16.2066 29.8284 15.5414 31.3867ZM22.5016 33.6137C22.5013 32.8961 22.7299 32.1162 23.0414 31.3867C23.7066 29.8284 24.75 28.5 24.75 28.5C24.75 28.5 25.7464 29.8762 26.4135 31.3878C26.7491 32.1482 27.0014 32.9428 27.0016 33.6137C27.002 34.9316 25.9949 36 24.7523 36C23.5097 36 22.502 34.9316 22.5016 33.6137ZM19.8531 38.8867C19.5417 39.6162 19.3131 40.3961 19.3133 41.1137C19.3137 42.4316 20.3214 43.5 21.5641 43.5C22.8067 43.5 23.8137 42.4316 23.8133 41.1137C23.8131 40.4428 23.5609 39.6482 23.2253 38.8878C22.5582 37.3762 21.5618 36 21.5618 36C21.5618 36 20.5184 37.3284 19.8531 38.8867ZM30.0016 33.6137C30.0014 32.8961 30.2299 32.1162 30.5414 31.3867C31.2066 29.8284 32.25 28.5 32.25 28.5C32.25 28.5 33.2464 29.8762 33.9135 31.3878C34.2491 32.1482 34.5014 32.9428 34.5016 33.6137C34.502 34.9316 33.4949 36 32.2523 36C31.0097 36 30.002 34.9316 30.0016 33.6137ZM27.3755 38.8867C27.064 39.6162 26.8355 40.3961 26.8357 41.1137C26.8361 42.4316 27.8438 43.5 29.0864 43.5C30.329 43.5 31.3361 42.4316 31.3357 41.1137C31.3355 40.4428 31.0832 39.6482 30.7476 38.8878C30.0805 37.3762 29.0841 36 29.0841 36C29.0841 36 28.0407 37.3284 27.3755 38.8867Z" fill="white"/>
</svg>
