<svg width="48" height="48" viewBox="0 0 48 48" fill="none" xmlns="http://www.w3.org/2000/svg">
<path fill-rule="evenodd" clip-rule="evenodd" d="M3 19.5C3 27.2128 8.10356 33.6897 15 35.4975V32.3657C9.82891 30.6437 6 25.5986 6 19.5C6 11.9407 11.8827 6 18.9124 6C24.8758 6 30.0137 10.2751 31.4353 16.1867L31.4398 16.1849C31.6406 17.0051 31.7686 17.8555 31.8162 18.7282C32.7509 18.2598 33.7908 18 34.8739 18C38.708 18 42 21.2544 42 25.5C42 29.7158 38.7539 32.9543 34.9544 32.9995V33H34.5V35.9929C34.6241 35.9976 34.7488 35.9999 34.8739 35.9999C40.4664 35.9999 45 31.2989 45 25.5C45 19.701 40.4664 15 34.8739 15C34.6582 15 34.444 15.007 34.2315 15.0208C32.3491 8.08465 26.2034 3 18.9124 3C10.1242 3 3 10.3873 3 19.5ZM25.7519 24.6679L19.7519 33.6679L18.1972 36H21H25.5664L20.784 42.6218L23.216 44.3782L29.716 35.3782L31.4336 33H28.5H23.8028L28.2481 26.3321L25.7519 24.6679Z" fill="white"/>
</svg>
